<svg xmlns="http://www.w3.org/2000/svg" width="1130.276" height="599.916" viewBox="0 0 1130.276 599.916">
  <g id="Group_3" data-name="Group 3" transform="translate(-459.747 -725.084)">
    <path id="Path_32" data-name="Path 32" d="M1344.54,1098.06c.08,2.67-.84,4.45-4.26,2.98-4.25-.49-8.17-.95-12.08-1.42v-1.65C1333.5,1097.97,1338.79,1097.97,1344.54,1098.06Z" fill="#555756"/>
    <g id="Group_2" data-name="Group 2">
      <path id="Path_7" data-name="Path 7" d="M1240.42,953.484c6.93-15.883,20.33-21.942,36.56-16.9a17.531,17.531,0,0,1,12.63,13.535,58.223,58.223,0,0,1,1.35,12.358c.15,15.655.06,31.311.06,46.97v6.17h11.39c-.01.5-.03,1-.04,1.51h-42.02c-.04-.38-.08-.76-.13-1.14q4.575-.39,9.11-.77c.21-.33.55-.6.55-.87q-.03-29.728-.14-59.45c0-1.322-.34-2.64-.47-3.965-1.11-11.515-8.62-12.7-17.02-8.179-3.79,2.041-6.75,6.316-9.07,10.187a26.778,26.778,0,0,0-3.92,11.737c-.99,16.722-1.38,33.48-2,50.47l10.09.67c-.02.44-.04.87-.06,1.31h-42.06c-.07-.35-.13-.7-.2-1.05,1.71-.19,3.42-.45,5.13-.54,1.81-.1,3.64-.02,6.29-.02v-5.55c.01-38.637-.07-77.278.14-115.917.02-4.777-1.47-6.248-5.92-5.646a42.031,42.031,0,0,1-5.58.041c0-.555,0-1.109.01-1.664h32.6V957.5c.31.065.63.129.94.193C1239.17,956.4,1239.71,955.113,1240.42,953.484Z" fill="#515252"/>
      <path id="Path_8" data-name="Path 8" d="M1231,1121v-71.3c-3.98-.27-7.7-.52-11.42-.77.02-.45.04-.9.07-1.36h32.28v70.98l1.02.3c.94-2.12,1.87-4.25,2.82-6.37a28.177,28.177,0,0,1,38.7-13.8c7.06,3.48,10.16,9.69,10.47,17,.58,13.64.53,27.3.68,40.96.07,6.32.01,12.63.01,19.32,3.92.29,7.66.57,11.39.85-.04.48-.09.95-.14,1.43h-41.95c-.05-.45-.09-.91-.14-1.36,1.44-.18,2.88-.4,4.32-.52,1.62-.14,3.24-.18,5.36-.29,0-6.42.03-12.54,0-18.66q-.1-20.235-.27-40.48a27.933,27.933,0,0,0-.24-3.99c-.64-4.26-.83-9.08-5.66-10.84s-9.55-.48-13.61,2.66c-7.54,5.84-10.66,14.31-11.32,23.15-1.19,15.89-1.21,31.86-1.73,48.07l10.27.72c-.02.47-.04.94-.07,1.41h-42.2c-.05-.47-.09-.94-.14-1.41,3.68-.19,7.36-.38,11.5-.59Z" fill="#515352"/>
      <path id="Path_9" data-name="Path 9" d="M1253.23,805.65c-.42,15.074-.76,29.716-1.1,44.359-.03,1.31,0,2.621,0,4.323l9.8.6c-.02.44-.05.88-.07,1.32H1219.7c-.05-.413-.09-.826-.14-1.239l11.23-.679V727.93l-11.32-.686c.02-.484.04-.969.05-1.454h32.35v71.477c.34.063.69.126,1.04.189,1.04-2.511,2-5.064,3.15-7.527,6.87-14.716,25.43-20.547,39.57-12.458,6.44,3.687,9.12,9.817,9.34,16.688.52,16.141.48,32.3.65,48.453.04,3.793.01,7.586.01,11.681l11.32.644c-.02.459-.05.918-.07,1.378H1274.8l-.09-1.369,9.17-.575a10.465,10.465,0,0,0,.58-2.359q-.09-28.487-.27-56.974a35.769,35.769,0,0,0-.43-5.475c-1.57-9.5-7.65-12.876-16.13-8.211a24.3,24.3,0,0,0-9,8.926C1256.08,794.819,1255.01,800.2,1253.23,805.65Z" fill="#515252"/>
      <path id="Path_10" data-name="Path 10" d="M1169.11,889.89c2.31,1.637,4.32,3.083,6.43,4.606,4.28-3.552,8.47-7.019,13.52-11.209v39.281l-1.2.3a39.2,39.2,0,0,0-1.82-4.681c-3.76-6.954-6.66-14.673-11.67-20.6-8.59-10.157-20.5-12.448-33.25-9.584-7.45,1.674-12.22,6.579-14.06,14.012-1.87,7.5-.71,14.62,5.59,19.472,5.35,4.116,11.44,7.34,17.41,10.569,8.76,4.741,18.18,8.424,26.5,13.818,20.46,13.255,25.78,39.822,12.3,58.429a36.233,36.233,0,0,1-22.09,14.44c-16.27,3.58-31.5,1.92-44.44-10.49-4.41,3.96-8.77,7.88-14.09,12.66V980.582c.36-.141.72-.282,1.07-.422.59,1.125,1.19,2.241,1.75,3.378,3.01,6.086,5.32,12.654,9.14,18.172,9.4,13.56,25.48,19.17,41.4,15.11,9.66-2.46,16.06-8.46,18.38-18.366,2.42-10.325-.39-18.965-9.28-24.867-5.51-3.658-11.59-6.482-17.51-9.491-7.85-3.99-16.07-7.332-23.64-11.789-11.38-6.7-18.47-16.587-19.4-30.221-1.48-21.637,14.33-37.552,37.63-37.764A39.175,39.175,0,0,1,1169.11,889.89Z" fill="#515252"/>
      <path id="Path_11" data-name="Path 11" d="M1103.25,728.368c-.15-4.143,2.6-3.188,4.55-3.191q34.995-.051,69.98-.01,17.955,0,35.91,0v41.15l-1.43.176a54.238,54.238,0,0,0-1.17-7.351c-2-6.813-3.56-13.883-6.59-20.236-3.35-7.04-9.86-10.713-17.78-11.1-5.27-.256-10.57-.048-16.14-.048V854.809h19q-.03.768-.06,1.537h-61.39c-.03-.41-.06-.819-.1-1.229h18.84V728.449c-21.24-3.068-33.21.527-38.92,23.009-1.24,4.9-1.84,9.953-2.73,14.936l-1.91-.038C1103.29,753.848,1103.27,741.339,1103.25,728.368Z" fill="#525453"/>
      <path id="Path_12" data-name="Path 12" d="M1170.3,1057.99c.01,39.48.01,78.46.01,118.52h19.45c-.02.56-.04,1.13-.07,1.69h-61.54c-.06-.57-.13-1.14-.19-1.71,3.03-.05,6.06-.12,9.09-.15,3.15-.03,6.3-.01,9.8-.01v-127.2c-6.52.3-13,.09-19.31,1.02a19.4,19.4,0,0,0-15.62,12.64c-2.63,6.75-4,14-5.88,21.04-.38,1.45-.57,2.96-.85,4.44-.45-.06-.91-.12-1.36-.17v-40.72h110.04v40.66c-.34.08-.68.16-1.02.25a17.531,17.531,0,0,1-1.02-2.62c-1.41-6.32-2.15-12.86-4.25-18.93-4.19-12.11-12.2-17.32-25.05-17.39-3.81-.01-7.61,0-12.23,0Z" fill="#525453"/>
      <path id="Path_13" data-name="Path 13" d="M1330.95,1019.04c-11.18-2.39-17.49-8.49-18.75-17.81-1.37-10.118,2.8-18.786,12.75-23.08,6.28-2.707,13.34-3.944,20.18-4.9,5.54-.778,11.28-.158,17.49-.158.56-9.463.9-18.529-2.79-27.156-2.15-5.023-6.31-8.008-11.78-7.7-5.8.329-11.54,1.588-17.31,2.44.03.565.06,1.13.1,1.694a55.124,55.124,0,0,1,5.81,1.72,9.7,9.7,0,0,1,6.48,9.675c.03,4.893-2.07,8.277-6.47,10.274-6.06,2.743-13.56,1.1-16.71-3.63a12.244,12.244,0,0,1,3.67-16.791,48.039,48.039,0,0,1,14.86-6.56,50.3,50.3,0,0,1,27.64.552c11.36,3.5,17.69,12.593,17.77,25.449.1,13.994,0,27.989.06,41.98.02,3.58-.84,7.92,3.55,9.51,4.55,1.65,7.91-1.29,10.88-4.38.85-.88,1.57-1.87,2.67-3.2-.21,6.84-8.22,12.03-18.44,12.6-12.85.72-18.24-3.81-20.24-17.85-5.96,14.57-16.62,19.51-31.42,17.32m21.92-44c-13.16,1.546-20.34,13.324-16.88,27.826,1.04,4.35,2.82,8.33,7.58,9.67,5.06,1.43,9.19-.77,12.55-4.26a21.929,21.929,0,0,0,3.96-6.27c3.83-8.64,2.9-17.724,2.62-27.024C1359.4,974.986,1356.59,974.986,1352.87,975.044Z" fill="#515252"/>
      <path id="Path_14" data-name="Path 14" d="M1527.49,998.15c-.3-.589-.59-1.178-1.36-2.709v63.489c3.5.2,7.14.41,11.53.66-3.48,2.77-40.62,3.03-44.73.03l11.12-.68V939.62L1492.99,939c.02-.47.03-.941.05-1.411h32.4v20.855l.82.136a94.9,94.9,0,0,1,5.39-10.425c.71.2.88.362.91.848-8.82,15.98-8.39,32.338-4.17,49.042C1527.89,998.1,1527.69,998.125,1527.49,998.15Z" fill="#555756"/>
      <path id="Path_15" data-name="Path 15" d="M1335.97,846.025c-14.04-14.407-13.07-44.906-.91-58.546,11.83-13.269,37.2-17.645,52.3-8.238,11.5,7.169,15.78,18.216,16.35,31.839h-54.39c-.06,11.739-.11,22.876,4.53,33.331,3.95,8.911,10.41,12.336,20.03,11.289,12.57-1.37,21.05-8.253,26.5-19.363a8.085,8.085,0,0,1,3.12-3.544c-3.13,11.516-9.9,20.251-21.5,23.663-16.89,4.965-32.62,2.645-46.03-10.431m15.4-52.879c-.69,5.052-1.38,10.1-2.11,15.456h31.9c-1.17-7.8-1.85-15.209-3.51-22.4-1.11-4.775-4.01-8.826-9.7-9.4-6.02-.6-10.29,2.192-13.04,7.266C1353.5,786.667,1352.72,789.6,1351.37,793.146Z" fill="#515352"/>
      <path id="Path_16" data-name="Path 16" d="M1487.91,1155.97a21.548,21.548,0,0,1,3.28-2.66c-2.95,10.4-8.29,17.3-16.13,22.14-13.24,8.17-42.63,8.4-56.24-12.44-9.45-14.47-8.72-38.71,1.87-52.36,10.14-13.06,30.49-18.27,47.75-12.21,13.61,4.78,22.73,19.36,21.33,34.59H1436.1c-.34,12.07-.2,23.66,4.98,34.46,4.4,9.16,13.02,12.22,24.8,9.06,10.8-2.9,17.61-10.24,22.03-20.58m-40.38-25.18h20.59c-1.48-8.54-2.44-16.25-4.24-23.77-1.15-4.76-4.44-8.19-9.87-8.51-5.36-.32-9.37,2.12-12.02,6.58-4.64,7.78-5.39,16.47-5.87,25.7Z" fill="#515352"/>
      <path id="Path_17" data-name="Path 17" d="M1506.58,1154.33c-4.07-15.13-3.77-29.46,5.22-42.48,11.36-16.44,39.82-21.17,56.07-9.46,10.15,7.32,13.96,17.76,14.31,30.61h-55.15c1.18,9.81,1.43,19.17,3.6,28.07,3.49,14.35,12.89,19.25,27.26,15.46,10.03-2.64,16.62-9.33,21.08-18.43a14.456,14.456,0,0,1,2.77-3.9c-.33,11.43-13.63,23.69-27.21,25.69-22.66,3.34-40.57-6.11-47.95-25.56m52.3-30.73c-1.11-5.85-1.38-12.03-3.51-17.48-3.72-9.5-14.69-10.49-20.6-2.18-5.63,7.91-6.23,17.15-6.65,26.46h30.8C1558.92,1128.18,1558.92,1126.35,1558.88,1123.6Z" fill="#515352"/>
      <path id="Path_18" data-name="Path 18" d="M1447.8,1015.54h7.09c-.02.55-.03,1.09-.05,1.64H1410.1c-.06-.36-.13-.71-.2-1.07,1.71-.21,3.41-.51,5.12-.61,1.81-.1,3.64-.02,5.85-.02V939.06h-10.86c-.01-.441-.01-.883-.02-1.325h32.45v18.188l.93.168c1.32-2.945,2.48-5.979,4.01-8.818,5.3-9.883,14.39-13.959,24.62-11.208,7.96,2.138,13.22,10.62,11.47,18.514-1.62,7.322-7.1,11.219-14.64,10.411-6.6-.707-10.93-5.489-10.92-12.039.02-7.064,4.56-11.832,12.11-12.7.95-.11,1.91-.175,3.24-.295-6.32-3.86-14.27-2.652-19.76,2.883-6.81,6.867-9.77,15.733-10.19,24.9-.72,15.591-.2,31.239-.2,47.495C1444.13,1015.3,1445.73,1015.42,1447.8,1015.54Z" fill="#525453"/>
      <path id="Path_19" data-name="Path 19" d="M1527.56,998.529c.13-.4.33-.428,1-.163,2.49,3.714,4.05,7.524,6.59,10.5,9.38,10.97,22.39,8.56,26.94-5.12a73.322,73.322,0,0,0,3.35-17.573c.96-12.663.95-25.4-4.19-37.356-4.4-10.226-14.02-12.494-22.92-5.778a42,42,0,0,1-4.22,3.125c-.7-.132-.97-.174-1.25-.216,6.65-9.844,18.89-13.372,31.46-8.7,14.81,5.513,22.93,16.684,25.03,32.006,2.43,17.75-1.38,33.568-17.02,44.408C1554.35,1026.14,1534.88,1019.57,1527.56,998.529Z" fill="#515352"/>
      <path id="Path_20" data-name="Path 20" d="M1111.25,1285v-31.88c10.1.43,20.11-1.75,29.59,2.4a15.184,15.184,0,0,1,6.58,6.41c4.11,7.64,1.66,19.07-4.5,25.18-.91.91-1.1,3.24-.72,4.67,2.54,9.61,5.33,19.17,8.28,29.57-3.97,0-7.43.27-10.8-.16-1.06-.13-2.37-1.98-2.74-3.28q-3.345-11.76-6.26-23.65c-.83-3.36-2.3-5.06-6.48-3.4v30.25h-12.95V1285m14.39-2.9c4.13.01,9.32.75,10.52-4.2,1.01-4.17.91-9.54-1.01-13.15-1.26-2.38-6.63-2.58-11.49-4.19C1124.09,1268.84,1124.42,1275.34,1125.64,1282.1Z" fill="#0fa96f"/>
      <path id="Path_21" data-name="Path 21" d="M1360.63,1103.01c.05,5.08.11,10.16-.13,15.98a11.575,11.575,0,0,0,1.78,4.08c-.47,17.42-.94,34.83-1.37,53.01.06,1.35.07,1.92.07,2.5-6.01.06-12.03.13-18.51-.25-1.14-1.4-1.81-2.37-2.48-3.33-.06-24.35-.12-48.7.23-73.5,3.48,1.01,4.4-.77,4.78-3.35a149.133,149.133,0,0,1,14.95.48C1360.16,1100.42,1360.39,1101.71,1360.63,1103.01Z" fill="#515252"/>
      <path id="Path_22" data-name="Path 22" d="M1484.57,1259.27c4.15,20.75,8.18,41.1,12.28,61.82h-11.64a121.719,121.719,0,0,0-2.33-12.01,5.423,5.423,0,0,0-3.73-3.17c-7.98-.71-7.99-.56-9.54,7.09-1.89,9.36-2.93,9.99-13.25,7.59,4.47-22.41,8.94-44.83,13.47-67.52a61.34,61.34,0,0,0,7.83-.05c4.65-.63,6.8,1.25,6.91,6.25m-8.86,16.24c-1.2,7.16-2.39,14.31-3.66,21.89h9.19c-1.47-8.69-2.86-16.94-4.26-25.19-.25.04-.49.07-.74.11C1476.11,1273.14,1475.99,1273.95,1475.71,1275.51Z" fill="#0fa96f"/>
      <path id="Path_23" data-name="Path 23" d="M1233.96,1318.03c-.74-4.16-1.41-7.9-2.13-11.84a24.853,24.853,0,0,0-3.52-.42c-9.28.32-7.78-1.7-9.41,7.9-1.46,8.53-1.86,8.81-13.25,7.18,4.48-22.45,8.94-44.85,13.46-67.49h13.58c4.46,22.33,8.94,44.72,13.64,68.23-4.48-1.73-9.37,3.03-12.37-3.56m-4.45-26.97q-1.53-9.24-3.05-18.48c-.37.05-.73.1-1.1.14-1.25,8.13-2.5,16.25-3.78,24.58h8.66C1230.04,1295.18,1229.88,1293.55,1229.51,1291.06Z" fill="#0fa96f"/>
      <path id="Path_24" data-name="Path 24" d="M1403.74,1313.56c-5.76,8.2-12.96,10.59-22.43,7.71-7.57-2.3-11.45-8.75-11.64-19.9,3.22-.65,6.55-1.32,10.14-2.05.74,3.06,1.2,5.81,2.07,8.43,1.13,3.37,3.53,5.28,7.26,4.55,3.86-.75,4.62-3.96,3.89-6.93-.8-3.23-2.12-6.71-4.28-9.13-3.96-4.44-9-7.91-13.01-12.32a23.629,23.629,0,0,1-5.6-9.71c-1.66-6.7-1.06-13.46,5-18.13s13.05-4.89,19.87-2.15c7.2,2.9,8.41,9.62,9.39,16.93l-10.58,2.11c-.46-2.38-.7-4.49-1.28-6.5-.89-3.07-3.18-5.42-6.21-4.23-2.1.84-4.78,3.83-4.69,5.74a15.178,15.178,0,0,0,3.89,8.65c3.64,4.07,8.13,7.35,12.08,11.16C1405,1294.91,1407.42,1303.36,1403.74,1313.56Z" fill="#0fa96f"/>
      <path id="Path_25" data-name="Path 25" d="M1164.67,1319.24c-.03-22.19-.03-43.95-.03-65.92h28.3V1262h-15.33v19.21h11.97v8.95h-12.01v22.33h15.61v8.81c-9.07,0-18,.03-26.93-.07C1165.72,1321.22,1165.21,1320.22,1164.67,1319.24Z" fill="#0aa76b"/>
      <path id="Path_26" data-name="Path 26" d="M1576.32,1312.61c5.53,1.57,1.68,5.47,3.11,8.46h-28.97v-67.7h28.28v8.65h-15.43v19.05c3.94.2,7.96.41,12.17.62v8.51h-12.06v22.41Z" fill="#0fa96f"/>
      <path id="Path_27" data-name="Path 27" d="M1355.36,1321.31c-9.22.06-17.99.06-27,.06v-67.83h28.32v8.47h-15.49v19.23h11.89v9.04h-11.86v22.21h16.31A61.874,61.874,0,0,1,1355.36,1321.31Z" fill="#0fa96f"/>
      <path id="Path_28" data-name="Path 28" d="M1513.87,1266.2c-1.07-1.54-1.99-3.25-3.23-3.53-2.19-.5-4.58-.14-7.27-.14v-9.04h33.35v8.32c-.26.18-.51.5-.79.53-9.43.85-9.43.85-9.43,10.74v47.88h-12.63Z" fill="#0aa76b"/>
      <path id="Path_29" data-name="Path 29" d="M1424.88,1262.62c-3.1-.04-5.74-.04-8.67-.04v-9.13h33.51v8.82c-3.24.16-6.5.33-10.25.52v58.25h-12.6c0-17.92.04-35.55-.07-53.17C1426.79,1266.13,1425.86,1264.4,1424.88,1262.62Z" fill="#0aa76b"/>
      <path id="Path_30" data-name="Path 30" d="M1272.27,1306.69c-.69,4.78.93,6.57,5.46,6.09a107.8,107.8,0,0,1,10.83-.07V1321h-28.47v-67.6h12.18Z" fill="#0aa76b"/>
      <path id="Path_31" data-name="Path 31" d="M1362.5,1122.8a8.175,8.175,0,0,1-2.1-3.34c1.81-3.74,3.31-7.26,5.04-10.66,5.02-9.9,13.84-14.36,23.75-12.12,8.35,1.89,13.39,8.56,12.89,17.04-.44,7.35-5.76,12.39-12.99,12.31-7.17-.07-12.38-4.65-12.85-11.29-.5-7.1,4.29-12.61,11.78-13.53,1.25-.15,2.5-.22,4.18-.36-7.55-3.83-15.86-2.93-20.6,3.59C1367.71,1109.79,1365.61,1116.44,1362.5,1122.8Z" fill="#555756"/>
      <path id="Path_33" data-name="Path 33" d="M1339.76,1175.37a7.242,7.242,0,0,1,2.25,2.87c-4.61.34-9.24.34-13.86.34-.01-.57-.01-1.14-.02-1.71C1331.93,1176.49,1335.73,1176.12,1339.76,1175.37Z" fill="#555756"/>
      <path id="Path_34" data-name="Path 34" d="M1361.44,1178.68a3.493,3.493,0,0,1-.5-2.11c4.08-.29,8.19-.29,12.3-.29.02.83.03,1.67.05,2.5C1369.49,1178.78,1365.69,1178.78,1361.44,1178.68Z" fill="#555756"/>
      <g id="Group_1" data-name="Group 1">
        <path id="Path_2" data-name="Path 2" d="M1059.95,1085v95.69H460.322V725.308H1059.95V1085m-293.3-57.27c9.992,6.71,14.255,15.98,12.272,27.92-1.784,10.74-7.658,18.77-17.963,22.08-17.448,5.59-33.6,2.79-47.143-10.31-7.734-7.48-12.09-17.01-15.517-27.03a28.826,28.826,0,0,0-2.161-4.09c-.411.16-.822.31-1.232.46v44.99c.35.36.7.71,1.052,1.07,5.157-4.62,10.315-9.24,15.54-13.91,7.8,7.76,16.856,12.46,27.48,13.62,17.831,1.95,34.189-1.1,47.191-14.8,15.029-15.83,17.476-51.99-9.549-69.686-9.961-6.523-21.126-11.186-31.6-16.959-7.395-4.076-15.015-7.98-21.683-13.075-7.528-5.752-8.669-14.268-6.281-23.126,2.278-8.449,7.9-13.958,16.389-15.757,15.873-3.362,30.243.015,40.386,13.134,5.259,6.8,8.164,15.423,12.132,23.223q1.052,2.066,2.1,4.134l1.211-.465V923.526l-16.239,13.516c-10.194-9.683-22.181-12.931-35.307-11.94-16.307,1.231-29.918,7.88-36.915,23.326-6.753,14.908-4.74,29.675,4.872,43.006,6.313,8.756,15.481,13.986,24.978,18.616,11.8,5.76,23.61,11.49,35.984,17.68M650.633,945.115l8.565,29.76.708-.076V927.283H531.7c-1.667,13.882-.706,45.455,2.047,48.117a76.4,76.4,0,0,1,1.175-8.093c1.863-7.216,3.339-14.614,6.077-21.5,3.085-7.758,9.026-13.6,17.5-14.94,7.762-1.231,15.76-.979,23.514-1.374V1078.05H560.04q.056.645.11,1.29h71.495c.02-.57.039-1.15.059-1.72H609.382V929.8c5.12,0,10.088.1,15.051-.019,11.571-.264,20.247,4.438,26.2,15.331M957,943.5v-16.2H828.546v47.557l1.5.188c.295-1.459.605-2.916.88-4.379,1.045-5.556,1.639-11.243,3.213-16.644,3.041-10.439,8.129-20.042,19.536-22.727,8.032-1.892,16.626-1.4,25.045-1.981V1077.91H856.586c.03.54.061,1.07.091,1.61h71.341c.04-.57.079-1.13.118-1.69H906.228V929.806c5,0,9.645-.016,14.294,0,14.557.057,23.614,5.936,28.451,19.733,2.453,7,3.366,14.537,5.037,21.817a30.776,30.776,0,0,0,1.348,3.7l1.64-.34Z" fill="#4e504f"/>
        <path id="Path_3" data-name="Path 3" d="M939.848,1312.99c-.005-22.82.067-45.14-.092-67.46-.026-3.71.875-5.97,4.308-7.94,17.46-10.03,34.778-20.3,52.045-30.66,2.822-1.69,4.9-1.61,7.681.05,17.43,10.41,35,20.58,52.39,31.06,1.74,1.06,3.58,3.7,3.6,5.62.24,25.98.17,51.97.15,77.95,0,.96-.16,1.93-.26,3.12H939.848Z" fill="#03aa6b"/>
        <path id="Path_4" data-name="Path 4" d="M707,1325H460.258v-23.79h455.4V1325Z" fill="#05a96b"/>
        <path id="Path_5" data-name="Path 5" d="M568,1252.92q171.417,0,341.835-.13c5.267,0,6.644,1.59,6.221,6.49a127.234,127.234,0,0,0-.041,13.99c.067,2.74-.941,4.03-3.8,3.78-1.653-.15-3.329-.04-4.995-.04H472.934a62.559,62.559,0,0,0-7.988.05c-4.413.55-5.423-1.43-5.16-5.41a99.905,99.905,0,0,0,0-13.48c-.286-4.1,1.024-5.36,5.264-5.34C499.2,1253,533.35,1252.92,568,1252.92Z" fill="#f8b61e"/>
        <path id="Path_6" data-name="Path 6" d="M697,1204.89H915.646v23.68H460.3v-23.68Z" fill="#427abc"/>
        <path id="Path_37" data-name="Path 37" d="M766.37,1027.51c-12.09-5.97-23.9-11.7-35.7-17.46-9.5-4.63-18.665-9.86-24.978-18.616-9.612-13.331-11.625-28.1-4.872-43.006,7-15.446,20.608-22.095,36.915-23.326,13.126-.991,25.113,2.257,35.307,11.94l16.239-13.516v45.627l-1.211.465q-1.05-2.067-2.1-4.134c-3.968-7.8-6.873-16.421-12.132-23.223-10.143-13.119-24.513-16.5-40.386-13.134-8.494,1.8-14.111,7.308-16.389,15.757-2.388,8.858-1.247,17.374,6.281,23.126,6.668,5.095,14.288,9,21.683,13.075,10.471,5.773,21.636,10.436,31.6,16.959,27.025,17.7,24.578,53.856,9.549,69.686-13,13.7-29.36,16.75-47.191,14.8-10.624-1.16-19.684-5.86-27.48-13.62-5.225,4.67-10.383,9.29-15.54,13.91-.351-.36-.7-.71-1.052-1.07v-44.99c.41-.15.821-.3,1.232-.46a28.826,28.826,0,0,1,2.161,4.09c3.427,10.02,7.783,19.55,15.517,27.03,13.542,13.1,29.7,15.9,47.143,10.31,10.3-3.31,16.179-11.34,17.963-22.08C780.909,1043.71,776.646,1034.44,766.37,1027.51Z" fill="#fafbfa"/>
        <path id="Path_38" data-name="Path 38" d="M650.413,944.811c-5.733-10.589-14.409-15.291-25.98-15.027-4.963.114-9.931.019-15.051.019V1077.62H631.7c-.02.57-.039,1.15-.059,1.72H560.15q-.056-.645-.11-1.29h21.97V929.493c-7.754.4-15.752.143-23.514,1.374-8.475,1.345-14.416,7.182-17.5,14.94-2.738,6.886-4.214,14.284-6.077,21.5a76.4,76.4,0,0,0-1.175,8.093c-2.753-2.662-3.714-34.235-2.047-48.117h128.21V974.8l-.708.076C656.343,964.955,653.488,955.035,650.413,944.811Z" fill="#fafafa"/>
        <path id="Path_39" data-name="Path 39" d="M957,944v30.721l-1.64.34a30.776,30.776,0,0,1-1.348-3.7c-1.671-7.28-2.584-14.817-5.037-21.817-4.837-13.8-13.894-19.676-28.451-19.733-4.649-.019-9.3,0-14.294,0V1077.83h21.908c-.039.56-.078,1.12-.118,1.69H856.677c-.03-.54-.061-1.07-.091-1.61h22.138V929.321c-8.419.579-17.013.089-25.045,1.981-11.407,2.685-16.495,12.288-19.536,22.727-1.574,5.4-2.168,11.088-3.213,16.644-.275,1.463-.585,2.92-.88,4.379l-1.5-.188V927.307H957Z" fill="#fbfcfb"/>
      </g>
      <path id="Path_46" data-name="Path 46" d="M1475.78,1275.14c.21-1.19.33-2,.46-2.82.25-.04.49-.07.74-.11,1.4,8.25,2.79,16.5,4.26,25.19h-9.19C1473.32,1289.82,1474.51,1282.67,1475.78,1275.14Z" fill="#dafaf0"/>
      <path id="Path_47" data-name="Path 47" d="M1229.62,1291.49c.26,2.06.42,3.69.62,5.81h-8.66c1.28-8.33,2.53-16.45,3.78-24.58.37-.04.73-.09,1.1-.14C1227.47,1278.74,1228.49,1284.9,1229.62,1291.49Z" fill="#dafaf0"/>
    </g>
  </g>
</svg>
